<svg width="285" height="28" viewBox="0 0 285 28" fill="none" xmlns="http://www.w3.org/2000/svg">
<rect x="0.291667" y="0.291667" width="40.25" height="27.4167" rx="3.20833" fill="white" stroke="#D9D9D9" stroke-width="0.583333"/>
<path fill-rule="evenodd" clip-rule="evenodd" d="M12.3961 18.9679H9.92243L8.06745 11.8911C7.9794 11.5655 7.79246 11.2778 7.51747 11.1421C6.8312 10.8012 6.07497 10.53 5.25 10.3931V10.1207H9.23495C9.78493 10.1207 10.1974 10.53 10.2662 11.0053L11.2286 16.1101L13.7011 10.1207H16.1061L12.3961 18.9679ZM17.481 18.9679H15.1448L17.0685 10.1207H19.4047L17.481 18.9679ZM22.4271 12.5716C22.4959 12.0951 22.9084 11.8227 23.3896 11.8227C24.1458 11.7542 24.9696 11.8911 25.6571 12.2308L26.0695 10.3259C25.3821 10.0534 24.6258 9.91663 23.9396 9.91663C21.6721 9.91663 20.0222 11.1421 20.0222 12.8429C20.0222 14.1368 21.1909 14.8162 22.0158 15.2254C22.9084 15.6335 23.2521 15.906 23.1834 16.3141C23.1834 16.9262 22.4959 17.1987 21.8096 17.1987C20.9846 17.1987 20.1597 16.9947 19.4046 16.6538L18.9922 18.5598C19.8171 18.8995 20.7096 19.0363 21.5346 19.0363C24.0771 19.1036 25.6571 17.8793 25.6571 16.0416C25.6571 13.7275 22.4271 13.5919 22.4271 12.5716ZM33.8333 18.9679L31.9783 10.1207H29.9858C29.5734 10.1207 29.1609 10.3931 29.0234 10.8012L25.5884 18.9679H27.9934L28.4734 17.6752H31.4283L31.7033 18.9679H33.8333ZM30.3295 12.5032L31.0158 15.8376H29.092L30.3295 12.5032Z" fill="#172B85"/>
<rect x="49.125" y="0.291667" width="40.25" height="27.4167" rx="3.20833" fill="white" stroke="#D9D9D9" stroke-width="0.583333"/>
<path d="M74.6444 6.0946C79.0411 6.09468 82.6053 9.70054 82.6053 14.1483C82.6052 18.596 79.041 22.202 74.6444 22.202C72.6731 22.202 70.8707 21.4748 69.4803 20.2743C68.0899 21.4748 66.2875 22.202 64.3163 22.202C59.9196 22.202 56.3554 18.596 56.3553 14.1483C56.3553 9.70054 59.9195 6.09467 64.3163 6.0946C66.2872 6.0946 68.09 6.82024 69.4803 8.02039C70.8706 6.82024 72.6734 6.0946 74.6444 6.0946Z" fill="#ED0006"/>
<path d="M74.6444 6.0946C79.0411 6.09468 82.6053 9.70054 82.6053 14.1483C82.6052 18.596 79.041 22.202 74.6444 22.202C72.6731 22.202 70.8707 21.4748 69.4803 20.2743C71.191 18.7972 72.2771 16.6019 72.2772 14.1483C72.2772 11.6943 71.1915 9.49754 69.4803 8.02039C70.8706 6.82024 72.6734 6.0946 74.6444 6.0946Z" fill="#F9A000"/>
<path d="M69.4801 8.02045C71.1914 9.4976 72.277 11.6943 72.277 14.1484C72.2769 16.602 71.1909 18.7973 69.4801 20.2744C67.7695 18.7973 66.6833 16.6019 66.6833 14.1484C66.6833 11.6945 67.7691 9.4976 69.4801 8.02045Z" fill="#FF5E00"/>
<rect x="97.9584" y="0.291667" width="40.25" height="27.4167" rx="3.20833" fill="#1F72CD" stroke="#D9D9D9" stroke-width="0.583333"/>
<path fill-rule="evenodd" clip-rule="evenodd" d="M104.987 9.91663L101.167 18.3712H105.74L106.307 17.0232H107.603L108.17 18.3712H113.205V17.3423L113.653 18.3712H116.257L116.706 17.3206V18.3712H127.176L128.449 17.0582L129.641 18.3712L135.019 18.382L131.186 14.1675L135.019 9.91663H129.724L128.485 11.2054L127.331 9.91663H115.941L114.963 12.0988L113.962 9.91663H109.398V10.9105L108.89 9.91663H104.987ZM105.872 11.1172H108.102L110.636 16.8503V11.1172H113.078L115.035 15.2278L116.839 11.1172H119.269V17.1839H117.791L117.778 12.4301L115.623 17.1839H114.3L112.132 12.4301V17.1839H109.091L108.514 15.8238H105.398L104.823 17.1827H103.193L105.872 11.1172ZM126.634 11.1172H120.622V17.1803H126.541L128.449 15.1709L130.288 17.1803H132.21L129.416 14.1663L132.21 11.1172H130.371L128.473 13.1035L126.634 11.1172ZM106.957 12.1437L105.93 14.5665H107.982L106.957 12.1437ZM122.107 13.4808V12.3733V12.3722H125.858L127.495 14.1434L125.786 15.9242H122.107V14.7151H125.387V13.4808H122.107Z" fill="white"/>
<rect x="146.792" y="0.291667" width="40.25" height="27.4167" rx="3.20833" fill="white" stroke="#D9D9D9" stroke-width="0.583333"/>
<path d="M159.132 5.83411H165.567C166.466 5.83411 167.024 6.56628 166.815 7.46754L163.819 20.3305C163.607 21.2286 162.708 21.9614 161.809 21.9614H155.375C154.478 21.9614 153.918 21.2286 154.127 20.3305L157.125 7.46754C157.334 6.56628 158.233 5.83411 159.132 5.83411Z" fill="#E21836"/>
<path d="M165.032 5.83337H172.432C173.33 5.83337 172.925 6.56555 172.714 7.46681L169.718 20.3297C169.508 21.2279 169.573 21.9607 168.673 21.9607H161.273C160.373 21.9607 159.816 21.2279 160.028 20.3297L163.023 7.46681C163.236 6.56555 164.133 5.83337 165.032 5.83337Z" fill="#00447C"/>
<path d="M172.138 5.83337H178.573C179.473 5.83337 180.032 6.56555 179.82 7.46681L176.825 20.3297C176.613 21.2279 175.713 21.9607 174.814 21.9607H168.382C167.482 21.9607 166.924 21.2279 167.135 20.3297L170.13 7.46681C170.34 6.56555 171.238 5.83337 172.138 5.83337Z" fill="#007B84"/>
<path d="M160.813 9.95551C160.151 9.96226 159.955 9.95551 159.893 9.94077C159.869 10.0548 159.422 12.1147 159.421 12.1164C159.325 12.5332 159.255 12.8303 159.017 13.0221C158.883 13.1336 158.725 13.1874 158.542 13.1874C158.249 13.1874 158.078 13.0417 158.049 12.7653L158.044 12.6704C158.044 12.6704 158.133 12.1122 158.133 12.1091C158.133 12.1091 158.602 10.2319 158.686 9.98374C158.69 9.96963 158.692 9.96226 158.693 9.95551C157.78 9.96351 157.619 9.95551 157.608 9.94077C157.601 9.961 157.579 10.0774 157.579 10.0774L157.1 12.1931L157.059 12.3726L156.98 12.9595C156.98 13.1336 157.014 13.2757 157.082 13.3959C157.3 13.7768 157.922 13.8339 158.274 13.8339C158.727 13.8339 159.152 13.7376 159.44 13.5618C159.938 13.2671 160.069 12.8064 160.185 12.397L160.239 12.187C160.239 12.187 160.722 10.2374 160.804 9.98374C160.807 9.96963 160.808 9.96226 160.813 9.95551ZM162.455 11.5283C162.339 11.5283 162.126 11.5565 161.935 11.6502C161.866 11.6858 161.8 11.7269 161.731 11.7678L161.793 11.5424L161.759 11.5045C161.354 11.5865 161.263 11.5975 160.889 11.6502L160.858 11.671C160.814 12.0313 160.776 12.3022 160.615 13.0104C160.553 13.2714 160.49 13.5349 160.426 13.7953L160.443 13.8284C160.827 13.8081 160.943 13.8081 161.276 13.8136L161.303 13.7843C161.346 13.5674 161.351 13.5165 161.445 13.0772C161.489 12.8689 161.581 12.4112 161.626 12.2482C161.71 12.2097 161.792 12.1717 161.87 12.1717C162.057 12.1717 162.034 12.3347 162.027 12.3996C162.019 12.5086 161.951 12.8647 161.881 13.1704L161.835 13.3677C161.802 13.5134 161.766 13.655 161.734 13.7995L161.748 13.8284C162.126 13.8081 162.241 13.8081 162.564 13.8136L162.602 13.7843C162.661 13.4455 162.678 13.3548 162.781 12.8615L162.833 12.6349C162.934 12.1913 162.985 11.9664 162.909 11.7832C162.828 11.5779 162.634 11.5283 162.455 11.5283ZM164.29 11.9927C164.089 12.0313 163.961 12.057 163.834 12.0737C163.708 12.0939 163.584 12.1122 163.39 12.1392L163.375 12.1532L163.361 12.1643C163.341 12.3089 163.326 12.4339 163.3 12.5809C163.277 12.7329 163.242 12.9056 163.185 13.1537C163.141 13.3437 163.118 13.4099 163.093 13.4767C163.069 13.5435 163.042 13.6084 162.992 13.7952L163.004 13.8125L163.013 13.8283C163.195 13.8197 163.314 13.8136 163.436 13.8125C163.557 13.8081 163.684 13.8125 163.879 13.8136L163.896 13.7996L163.915 13.7843C163.943 13.6158 163.947 13.5705 163.964 13.4883C163.981 13.4001 164.011 13.2781 164.083 12.9522C164.117 12.7991 164.156 12.6465 164.191 12.4902C164.228 12.3347 164.266 12.1814 164.303 12.0283L164.298 12.0098L164.29 11.9927ZM164.295 11.3665C164.112 11.2588 163.792 11.293 163.576 11.4418C163.361 11.5877 163.336 11.7947 163.518 11.9039C163.698 12.0087 164.019 11.9775 164.233 11.8274C164.448 11.6784 164.475 11.4732 164.295 11.3665ZM165.399 13.8621C165.768 13.8621 166.147 13.7603 166.432 13.4582C166.651 13.2132 166.751 12.8487 166.786 12.6986C166.9 12.2011 166.811 11.9688 166.701 11.8273C166.532 11.6116 166.234 11.5425 165.926 11.5425C165.74 11.5425 165.297 11.5608 164.952 11.8794C164.704 12.1092 164.589 12.421 164.52 12.7199C164.45 13.0245 164.37 13.5729 164.874 13.7769C165.03 13.8438 165.254 13.8621 165.399 13.8621ZM165.37 12.7427C165.455 12.3659 165.556 12.0497 165.812 12.0497C166.013 12.0497 166.028 12.285 165.938 12.663C165.922 12.7469 165.849 13.0589 165.75 13.1917C165.68 13.2898 165.598 13.3492 165.508 13.3492C165.481 13.3492 165.32 13.3492 165.318 13.111C165.316 12.9933 165.34 12.8732 165.37 12.7427ZM167.71 13.8137L167.739 13.7843C167.779 13.5674 167.786 13.5164 167.877 13.0772C167.922 12.8689 168.016 12.4113 168.06 12.2483C168.144 12.2096 168.224 12.1716 168.305 12.1716C168.491 12.1716 168.468 12.3346 168.461 12.3995C168.454 12.5087 168.386 12.8646 168.315 13.1703L168.271 13.3676C168.237 13.5134 168.2 13.6549 168.168 13.7995L168.182 13.8284C168.561 13.8082 168.672 13.8082 168.997 13.8137L169.036 13.7843C169.093 13.4454 169.108 13.3547 169.215 12.8616L169.266 12.6348C169.368 12.1912 169.419 11.9664 169.344 11.7832C169.26 11.5779 169.065 11.5284 168.889 11.5284C168.773 11.5284 168.559 11.5564 168.369 11.6502C168.301 11.6858 168.233 11.7268 168.166 11.7679L168.224 11.5425L168.193 11.5044C167.788 11.5865 167.696 11.5975 167.322 11.6502L167.293 11.6711C167.248 12.0314 167.211 12.3021 167.05 13.0104C166.988 13.2714 166.925 13.5349 166.861 13.7953L166.878 13.8284C167.262 13.8082 167.377 13.8082 167.71 13.8137ZM170.496 13.8283C170.52 13.7119 170.662 13.0221 170.663 13.0221C170.663 13.0221 170.784 12.516 170.791 12.4976C170.791 12.4976 170.829 12.4449 170.867 12.424H170.923C171.45 12.424 172.044 12.424 172.511 12.081C172.828 11.8457 173.045 11.4983 173.142 11.0761C173.167 10.9726 173.185 10.8494 173.185 10.7263C173.185 10.5646 173.153 10.4046 173.059 10.2796C172.821 9.94692 172.348 9.9408 171.801 9.93829C171.799 9.93829 171.532 9.9408 171.532 9.9408C170.832 9.94943 170.551 9.94692 170.436 9.9328C170.426 9.98378 170.408 10.0744 170.408 10.0744C170.408 10.0744 170.157 11.2361 170.157 11.2379C170.157 11.2379 169.558 13.7077 169.529 13.8241C170.14 13.8167 170.391 13.8167 170.496 13.8283ZM170.961 11.7648C170.961 11.7648 171.227 10.6055 171.226 10.6099L171.234 10.5505L171.238 10.5051L171.345 10.5161C171.345 10.5161 171.894 10.5633 171.907 10.5646C172.124 10.6485 172.214 10.8648 172.151 11.1471C172.094 11.4051 171.927 11.6221 171.712 11.7268C171.535 11.8156 171.318 11.823 171.094 11.823H170.95L170.961 11.7648ZM172.62 12.7641C172.549 13.0644 172.468 13.6127 172.97 13.8081C173.13 13.8762 173.274 13.8964 173.419 13.8891C173.573 13.8808 173.716 13.8036 173.848 13.6925C173.836 13.7382 173.824 13.7838 173.812 13.8296L173.835 13.859C174.196 13.8437 174.308 13.8437 174.699 13.8467L174.734 13.8197C174.791 13.4841 174.845 13.1581 174.993 12.516C175.066 12.2084 175.138 11.9038 175.212 11.5975L175.2 11.5638C174.797 11.6386 174.689 11.6546 174.3 11.7096L174.271 11.7336C174.267 11.7649 174.263 11.7948 174.259 11.8248C174.199 11.7272 174.111 11.6439 173.976 11.592C173.804 11.5241 173.398 11.6116 173.049 11.9291C172.804 12.1557 172.687 12.4663 172.62 12.7641ZM173.468 12.7825C173.554 12.4125 173.653 12.0994 173.911 12.0994C174.073 12.0994 174.159 12.2495 174.142 12.5055C174.128 12.5693 174.113 12.6366 174.095 12.7127C174.069 12.8226 174.042 12.9317 174.014 13.0408C173.987 13.1155 173.955 13.1859 173.919 13.2328C173.853 13.3266 173.696 13.3848 173.605 13.3848C173.579 13.3848 173.421 13.3848 173.415 13.1508C173.414 13.0342 173.438 12.9142 173.468 12.7825ZM177.896 11.5608L177.865 11.5252C177.465 11.6061 177.393 11.619 177.026 11.6685L176.999 11.6955C176.997 11.6999 176.996 11.7066 176.994 11.7128L176.993 11.7066C176.72 12.337 176.728 12.201 176.506 12.6973C176.504 12.6747 176.504 12.6606 176.503 12.6366L176.447 11.5608L176.412 11.5252C175.994 11.6061 175.984 11.619 175.598 11.6685L175.567 11.6955C175.563 11.7084 175.563 11.7225 175.561 11.7379L175.563 11.7433C175.612 11.9902 175.6 11.9352 175.648 12.3248C175.671 12.516 175.701 12.7083 175.724 12.8971C175.762 13.2132 175.783 13.3688 175.83 13.8511C175.569 14.2818 175.507 14.4448 175.256 14.8228L175.257 14.8265L175.08 15.1064C175.06 15.1358 175.042 15.1561 175.016 15.1647C174.988 15.1787 174.951 15.1812 174.9 15.1812H174.802L174.656 15.6658L175.156 15.6745C175.45 15.6732 175.634 15.536 175.734 15.3515L176.048 14.8129H176.043L176.076 14.7749C176.287 14.3198 177.896 11.5608 177.896 11.5608ZM172.62 17.9261H172.408L173.193 15.3301H173.453L173.536 15.0627L173.544 15.3601C173.534 15.5439 173.679 15.7069 174.058 15.6799H174.498L174.649 15.18H174.484C174.389 15.18 174.345 15.156 174.35 15.1046L174.342 14.802H173.528V14.8036C173.265 14.8091 172.48 14.8288 172.321 14.8712C172.128 14.9207 171.926 15.0666 171.926 15.0666L172.005 14.7989H171.244L171.086 15.3301L170.29 17.9658H170.136L169.985 18.4621H171.5L171.45 18.6276H172.196L172.246 18.4621H172.456L172.62 17.9261ZM171.998 15.8576C171.876 15.8913 171.649 15.9936 171.649 15.9936L171.851 15.3301H172.456L172.31 15.8135C172.31 15.8135 172.123 15.8245 171.998 15.8576ZM172.01 16.8054C172.01 16.8054 171.82 16.8293 171.695 16.8575C171.571 16.8948 171.341 17.0125 171.341 17.0125L171.549 16.322H172.157L172.01 16.8054ZM171.671 17.9322H171.064L171.24 17.3495H171.845L171.671 17.9322ZM173.131 16.322H174.006L173.88 16.7289H172.994L172.861 17.1737H173.636L173.049 18.0002C173.008 18.0609 172.971 18.0823 172.93 18.0994C172.889 18.1203 172.835 18.1448 172.773 18.1448H172.558L172.41 18.632H172.973C173.265 18.632 173.438 18.4989 173.565 18.3244L173.968 17.7735L174.054 18.3328C174.073 18.4376 174.148 18.4989 174.199 18.5228C174.255 18.551 174.313 18.5995 174.395 18.6067C174.484 18.6105 174.547 18.6134 174.59 18.6134H174.866L175.032 18.0682H174.923C174.86 18.0682 174.753 18.0577 174.734 18.0381C174.716 18.0143 174.716 17.9776 174.706 17.9217L174.618 17.3612H174.259L174.417 17.1737H175.301L175.437 16.7289H174.618L174.746 16.322H175.562L175.713 15.8203H173.28L173.131 16.322ZM165.747 18.0455L165.951 17.3667H166.79L166.943 16.8618H166.104L166.232 16.4439H167.052L167.204 15.955H165.152L165.003 16.4439H165.469L165.345 16.8618H164.877L164.722 17.3753H165.188L164.916 18.2734C164.88 18.3923 164.934 18.4377 164.968 18.4929C165.003 18.5467 165.038 18.5823 165.118 18.6025C165.2 18.6209 165.256 18.6318 165.333 18.6318H166.278L166.447 18.0725L166.028 18.1301C165.947 18.1301 165.723 18.1204 165.747 18.0455ZM165.843 14.7958L165.631 15.1799C165.585 15.2638 165.544 15.3159 165.508 15.3399C165.475 15.3601 165.411 15.3686 165.318 15.3686H165.207L165.059 15.86H165.427C165.604 15.86 165.74 15.7951 165.805 15.7626C165.875 15.7253 165.893 15.7466 165.947 15.6945L166.071 15.5868H167.221L167.374 15.0751H166.532L166.679 14.7958H165.843ZM167.541 18.0554C167.522 18.0272 167.536 17.9774 167.566 17.8739L167.88 16.8335H168.998C169.161 16.8312 169.279 16.8293 169.355 16.8238C169.438 16.8152 169.527 16.7859 169.624 16.7332C169.725 16.6779 169.776 16.6198 169.82 16.5529C169.868 16.4863 169.946 16.3404 170.013 16.1155L170.408 14.7989L169.248 14.8056C169.248 14.8056 168.89 14.8583 168.733 14.9165C168.574 14.9815 168.347 15.1628 168.347 15.1628L168.452 14.8019H167.735L166.732 18.1301C166.696 18.2593 166.672 18.3531 166.667 18.4094C166.665 18.4701 166.743 18.5302 166.794 18.5755C166.854 18.6208 166.943 18.6135 167.028 18.6208C167.118 18.6276 167.245 18.6318 167.421 18.6318H167.972L168.141 18.0609L167.648 18.1075C167.595 18.1075 167.557 18.0792 167.541 18.0554ZM168.083 16.1309H169.257L169.183 16.3649C169.172 16.3704 169.147 16.3533 169.028 16.3674H168.011L168.083 16.1309ZM168.318 15.346H169.502L169.417 15.6278C169.417 15.6278 168.859 15.6224 168.77 15.6388C168.376 15.7069 168.146 15.9171 168.146 15.9171L168.318 15.346ZM169.209 17.1485C169.199 17.1835 169.184 17.2049 169.162 17.2209C169.139 17.2362 169.1 17.2417 169.042 17.2417H168.875L168.885 16.9567H168.189L168.161 18.35C168.159 18.4506 168.169 18.5087 168.243 18.5553C168.316 18.6135 168.543 18.6209 168.848 18.6209H169.284L169.442 18.0994L169.062 18.1202L168.936 18.1276C168.918 18.1202 168.902 18.1135 168.884 18.0951C168.868 18.0793 168.841 18.089 168.845 17.9885L168.848 17.6313L169.246 17.6149C169.461 17.6149 169.553 17.5449 169.632 17.4782C169.706 17.4144 169.731 17.341 169.759 17.2417L169.826 16.9255H169.279L169.209 17.1485Z" fill="white"/>
<rect x="195.625" y="0.291667" width="40.25" height="27.4167" rx="3.20833" fill="white" stroke="#D9D9D9" stroke-width="0.583333"/>
<path fill-rule="evenodd" clip-rule="evenodd" d="M206.51 9.73364C206.167 10.1442 205.619 10.468 205.07 10.4217C205.002 9.86664 205.27 9.27684 205.584 8.91255C205.927 8.49044 206.527 8.18976 207.012 8.16663C207.07 8.74486 206.847 9.31153 206.51 9.73364ZM207.007 10.5316C206.524 10.5035 206.083 10.6787 205.727 10.8202C205.498 10.9113 205.304 10.9884 205.156 10.9884C204.99 10.9884 204.788 10.9072 204.561 10.8159C204.264 10.6964 203.924 10.5597 203.568 10.5663C202.751 10.5779 201.991 11.0462 201.574 11.7922C200.718 13.284 201.352 15.4929 202.18 16.7072C202.585 17.3085 203.071 17.9677 203.711 17.9446C203.992 17.9338 204.195 17.8469 204.404 17.7569C204.645 17.6532 204.896 17.5456 205.287 17.5456C205.665 17.5456 205.905 17.6504 206.135 17.7511C206.354 17.8468 206.564 17.9387 206.875 17.933C207.538 17.9214 207.955 17.3316 208.361 16.7303C208.798 16.0849 208.991 15.455 209.02 15.3594L209.023 15.3483C209.023 15.3476 209.017 15.3451 209.008 15.3407L209.008 15.3407L209.008 15.3407C208.861 15.2729 207.743 14.7546 207.732 13.365C207.721 12.1985 208.619 11.6075 208.761 11.5145L208.761 11.5145C208.769 11.5088 208.775 11.505 208.778 11.503C208.206 10.6473 207.315 10.5547 207.007 10.5316ZM211.594 17.8694V8.85471H214.936C216.661 8.85471 217.866 10.0574 217.866 11.8153C217.866 13.5731 216.638 14.7874 214.89 14.7874H212.976V17.8694H211.594ZM212.976 10.0343H214.57C215.769 10.0343 216.455 10.682 216.455 11.8211C216.455 12.9602 215.769 13.6136 214.564 13.6136H212.976V10.0343ZM222.43 16.7881C222.065 17.4936 221.259 17.9388 220.391 17.9388C219.106 17.9388 218.209 17.164 218.209 15.9959C218.209 14.8395 219.077 14.1745 220.682 14.0762L222.407 13.9721V13.4748C222.407 12.7405 221.933 12.3415 221.088 12.3415C220.391 12.3415 219.883 12.7058 219.78 13.2609H218.534C218.574 12.0929 219.66 11.2429 221.128 11.2429C222.71 11.2429 223.738 12.0813 223.738 13.3823V17.8694H222.459V16.7881H222.43ZM220.762 16.8691C220.025 16.8691 219.557 16.5106 219.557 15.9613C219.557 15.3946 220.008 15.065 220.871 15.013L222.407 14.9147V15.4235C222.407 16.2677 221.699 16.8691 220.762 16.8691ZM227.983 18.2221C227.429 19.8007 226.794 20.3211 225.446 20.3211C225.344 20.3211 225.001 20.3096 224.921 20.2864V19.2051C225.007 19.2167 225.218 19.2283 225.326 19.2283C225.938 19.2283 226.28 18.9681 226.492 18.2915L226.617 17.8925L224.275 11.3296H225.721L227.349 16.6551H227.377L229.005 11.3296H230.41L227.983 18.2221Z" fill="black"/>
<rect x="244.458" y="0.291667" width="40.25" height="27.4167" rx="3.20833" fill="white" stroke="#D9D9D9" stroke-width="0.583333"/>
<g clip-path="url(#clip0_1755_48606)">
<path fill-rule="evenodd" clip-rule="evenodd" d="M251.261 12.5699L252.4 14.9677H250.075L251.261 12.5699ZM253.009 16.3153H254.401L251.8 10.7654H251.419C251.36 10.7654 251.299 10.7819 251.243 10.8149C251.189 10.8488 251.148 10.8954 251.121 10.9504L248.5 16.3153H249.429L249.899 15.409H252.574L253.01 16.3153H253.009Z" fill="#373530"/>
<path fill-rule="evenodd" clip-rule="evenodd" d="M256.192 16.3153H254.932V11.0044C254.932 10.944 254.956 10.8817 255.004 10.8359C255.051 10.7892 255.114 10.7654 255.176 10.7654H256.192V16.3162" fill="#373530"/>
<path fill-rule="evenodd" clip-rule="evenodd" d="M257.3 12.46C257.3 12.3996 257.324 12.3383 257.37 12.2925C257.418 12.2458 257.481 12.2229 257.542 12.2229H258.568V16.3162H257.3V12.46Z" fill="#35322C"/>
<path fill-rule="evenodd" clip-rule="evenodd" d="M260.903 15.1755C260.903 15.2752 260.923 15.3677 260.96 15.4556C260.999 15.5435 261.052 15.6195 261.12 15.6845C261.189 15.7495 261.273 15.8008 261.37 15.8374C261.468 15.874 261.574 15.8932 261.693 15.8932C261.801 15.8932 261.904 15.8566 262.001 15.7852C262.097 15.7147 262.181 15.6167 262.252 15.4904C262.323 15.365 262.381 15.2148 262.423 15.0381C262.465 14.8623 262.487 14.671 262.487 14.4659C262.487 14.2013 262.469 13.9688 262.431 13.7701C262.394 13.5705 262.341 13.403 262.273 13.2684C262.205 13.1329 262.125 13.0331 262.031 12.9654C261.937 12.8976 261.834 12.8647 261.723 12.8647C261.642 12.8647 261.564 12.8775 261.488 12.904C261.413 12.9306 261.341 12.9663 261.272 13.013C261.203 13.0597 261.138 13.1128 261.075 13.175C261.012 13.2382 260.955 13.3041 260.903 13.3719V15.1764V15.1755ZM259.628 12.4628C259.628 12.4023 259.652 12.3401 259.7 12.2934C259.748 12.2476 259.811 12.2229 259.873 12.2229H260.903V12.5433C261.05 12.4261 261.217 12.33 261.405 12.254C261.594 12.1771 261.814 12.1396 262.067 12.1396C262.334 12.1396 262.578 12.1899 262.797 12.2934C263.015 12.3968 263.202 12.536 263.358 12.7118C263.514 12.8867 263.634 13.0908 263.719 13.3243C263.804 13.5568 263.845 13.804 263.845 14.0658C263.845 14.4028 263.795 14.7113 263.696 14.9951C263.596 15.278 263.452 15.5243 263.264 15.7312C263.077 15.939 262.852 16.101 262.585 16.2191C262.32 16.3354 262.022 16.394 261.693 16.394C261.526 16.394 261.381 16.3876 261.26 16.3757C261.138 16.362 261.02 16.3336 260.904 16.2878V17.9284H259.629V12.4628H259.628Z" fill="#332D28"/>
<path fill-rule="evenodd" clip-rule="evenodd" d="M265.321 14.9603C265.321 14.4852 265.716 14.1217 266.201 14.0869C266.507 14.065 266.692 14.119 266.801 14.1858V15.5884C266.645 15.733 266.433 15.8218 266.201 15.8218C265.714 15.8218 265.321 15.4364 265.321 14.9603ZM267.134 12.2696C266.525 12.0993 265.755 12.0673 264.703 12.3355C264.738 12.4381 264.783 12.6212 264.816 12.7274C266.481 12.4372 266.802 12.6624 266.802 13.3664V13.5861C266.498 13.5651 266.14 13.5147 265.847 13.5101C264.709 13.4928 264.295 14.3799 264.295 14.9402C264.295 15.9198 265.248 16.8289 266.802 16.1578V16.3144H268.102V13.3261C268.102 12.7457 267.591 12.396 267.134 12.2687" fill="#332D28"/>
<path fill-rule="evenodd" clip-rule="evenodd" d="M268.444 12.1461H269.79L271.116 14.672L272.207 12.309C272.228 12.2623 272.264 12.2211 272.312 12.1891C272.359 12.1598 272.413 12.1461 272.466 12.1461H273.184L271.073 16.7008C270.565 17.9404 269.333 17.7655 269.107 17.7655V17.077C269.276 17.077 269.843 17.0835 270.091 16.8106C270.146 16.7502 270.204 16.6358 270.241 16.5579C270.278 16.4801 270.311 16.4124 270.341 16.351L270.489 16.0233L268.445 12.147" fill="#332D28"/>
<path fill-rule="evenodd" clip-rule="evenodd" d="M258.614 11.0099C258.614 11.344 258.308 11.616 257.929 11.616C257.55 11.616 257.245 11.344 257.245 11.0099C257.245 10.6757 257.551 10.4056 257.929 10.4056C258.307 10.4056 258.614 10.6766 258.614 11.0099Z" fill="#00AEEF"/>
<path fill-rule="evenodd" clip-rule="evenodd" d="M282.16 16.3593H281.227C281.197 16.3593 281.169 16.3428 281.154 16.3172L280.07 14.4495L279.512 15.0977V16.3593H278.755C278.709 16.3593 278.67 16.3208 278.67 16.2741V12.2477C278.67 12.201 278.709 12.1625 278.755 12.1625H279.512V13.8727C279.512 13.8965 279.532 13.9148 279.554 13.9148C279.567 13.9148 279.579 13.9093 279.587 13.8993L281.007 12.1927C281.024 12.1735 281.048 12.1625 281.072 12.1625H282.057L280.627 13.8306L282.159 16.3593H282.16ZM277.656 16.3593H276.888C276.841 16.3593 276.802 16.3208 276.802 16.2741V14.6875C276.802 14.6408 276.764 14.6024 276.717 14.6024H275.323V16.3593H274.555C274.508 16.3593 274.47 16.3208 274.47 16.2741V12.2477C274.47 12.201 274.508 12.1625 274.555 12.1625H275.323V13.8782H276.717C276.764 13.8782 276.802 13.8398 276.802 13.7931V12.2477C276.802 12.201 276.841 12.1625 276.888 12.1625H277.656V16.3593Z" fill="#00AEEF"/>
</g>
<defs>
<clipPath id="clip0_1755_48606">
<rect width="33.66" height="7.521" fill="white" transform="translate(248.5 10.4056)"/>
</clipPath>
</defs>
</svg>
