<svg width="360" height="240" viewBox="0 0 360 240" fill="none" xmlns="http://www.w3.org/2000/svg">
<path d="M181.5 54L254 54C257.314 54 260 56.6863 260 60L260 164C260 167.314 257.314 170 254 170L233.5 170M254 59.1962L185.165 113.603C183.01 115.307 179.973 115.329 177.793 113.657L109.651 61.4012C105.704 58.3744 100 61.1885 100 66.1624L100 164C100 167.314 102.686 170 106 170L123.5 170" stroke="#788AC4" stroke-width="6" stroke-linecap="round"/>
<rect x="185" y="144" width="6" height="41" rx="3" transform="rotate(90 185 144)" fill="#FFCA05"/>
<rect x="216" y="156" width="6" height="72" rx="3" transform="rotate(90 216 156)" fill="#4585FF"/>
<rect x="179" y="168" width="6" height="35" rx="3" transform="rotate(90 179 168)" fill="#888888"/>
<rect x="216" y="185" width="6" height="72" rx="3" transform="rotate(90 216 185)" fill="#B4B4B4"/>
<rect x="179" y="197" width="6" height="35" rx="3" transform="rotate(90 179 197)" fill="#888888"/>
<circle cx="157" cy="53" r="13.0309" stroke="#FFCA05" stroke-width="5.93822"/>
</svg>
